<svg viewBox="0 0 860 480" xmlns="http://www.w3.org/2000/svg" font-family="-apple-system,Segoe UI,Roboto,Helvetica,Arial,sans-serif">
<text x="30" y="36" font-size="19" font-weight="700" fill="#e6edf3">Valid bugs caught by each reviewer, per run</text>
<text x="30" y="57" font-size="12.5" fill="#adbac7">Every qualifying run with 20 or more valid bugs (all 7 of them). Segment length: the number of that run&#8217;s bugs each reviewer caught.</text>
<text x="55.1" y="110" font-size="12.5" font-weight="700" fill="#c9d1d9" text-anchor="end">Run A</text>
<rect x="68.0" y="92" width="145.7" height="26" fill="#2A78D6"/>
<text x="140.9" y="110" font-size="11" font-weight="700" fill="#fff" text-anchor="middle">5</text>
<rect x="213.7" y="92" width="262.3" height="26" fill="#1BAF7A"/>
<text x="344.9" y="110" font-size="11" font-weight="700" fill="#fff" text-anchor="middle">9</text>
<rect x="476.0" y="92" width="204.0" height="26" fill="#8B95A5"/>
<text x="578.0" y="110" font-size="11" font-weight="700" fill="#fff" text-anchor="middle">7</text>
<text x="692.9" y="110" font-size="11.5" font-weight="700" fill="#C2410C">Claude: 0 of 21, no all-clear</text>
<text x="55.1" y="154" font-size="12.5" font-weight="700" fill="#c9d1d9" text-anchor="end">Run B</text>
<rect x="68.0" y="136" width="325.5" height="26" fill="#1BAF7A"/>
<text x="230.8" y="154" font-size="11" font-weight="700" fill="#fff" text-anchor="middle">25</text>
<rect x="393.5" y="136" width="286.5" height="26" fill="#8B95A5"/>
<text x="536.8" y="154" font-size="11" font-weight="700" fill="#fff" text-anchor="middle">22</text>
<text x="692.9" y="154" font-size="11.5" font-weight="700" fill="#C2410C">Claude: 0 of 47, no all-clear</text>
<text x="55.1" y="198" font-size="12.5" font-weight="700" fill="#c9d1d9" text-anchor="end">Run C</text>
<rect x="68.0" y="180" width="389.4" height="26" fill="#1BAF7A"/>
<text x="262.8" y="198" font-size="11" font-weight="700" fill="#fff" text-anchor="middle">14</text>
<rect x="457.4" y="180" width="222.6" height="26" fill="#8B95A5"/>
<text x="568.8" y="198" font-size="11" font-weight="700" fill="#fff" text-anchor="middle">8</text>
<text x="692.9" y="198" font-size="11.5" font-weight="700" fill="#C2410C">Claude: all-clear, 0 of 22</text>
<text x="55.1" y="242" font-size="12.5" font-weight="700" fill="#c9d1d9" text-anchor="end">Run D</text>
<rect x="68.0" y="224" width="29.1" height="26" fill="#C2410C"/>
<text x="82.6" y="242" font-size="11" font-weight="700" fill="#fff" text-anchor="middle">2</text>
<rect x="97.1" y="224" width="364.3" height="26" fill="#1BAF7A"/>
<text x="279.3" y="242" font-size="11" font-weight="700" fill="#fff" text-anchor="middle">25</text>
<rect x="461.4" y="224" width="218.6" height="26" fill="#8B95A5"/>
<text x="570.7" y="242" font-size="11" font-weight="700" fill="#fff" text-anchor="middle">15</text>
<text x="692.9" y="242" font-size="11.5" font-weight="700" fill="#C2410C">Claude: 2 of 42</text>
<text x="55.1" y="286" font-size="12.5" font-weight="700" fill="#c9d1d9" text-anchor="end">Run E</text>
<rect x="68.0" y="268" width="21.2" height="26" fill="#C2410C"/>
<rect x="89.2" y="268" width="548.7" height="26" fill="#1BAF7A"/>
<text x="363.5" y="286" font-size="11" font-weight="700" fill="#fff" text-anchor="middle">26</text>
<rect x="637.8" y="268" width="42.2" height="26" fill="#8B95A5"/>
<text x="658.8" y="286" font-size="11" font-weight="700" fill="#fff" text-anchor="middle">2</text>
<text x="692.9" y="286" font-size="11.5" font-weight="700" fill="#C2410C">Claude: 1 of 29</text>
<text x="55.1" y="330" font-size="12.5" font-weight="700" fill="#c9d1d9" text-anchor="end">Run F</text>
<rect x="68.0" y="312" width="51.0" height="26" fill="#2A78D6"/>
<text x="93.6" y="330" font-size="11" font-weight="700" fill="#fff" text-anchor="middle">2</text>
<rect x="119.0" y="312" width="510.0" height="26" fill="#1BAF7A"/>
<text x="374.0" y="330" font-size="11" font-weight="700" fill="#fff" text-anchor="middle">20</text>
<rect x="629.0" y="312" width="51.0" height="26" fill="#8B95A5"/>
<text x="654.4" y="330" font-size="11" font-weight="700" fill="#fff" text-anchor="middle">2</text>
<text x="692.9" y="330" font-size="11.5" font-weight="700" fill="#C2410C">Claude: all-clear, 0 of 24</text>
<text x="55.1" y="374" font-size="12.5" font-weight="700" fill="#c9d1d9" text-anchor="end">Run G</text>
<rect x="68.0" y="356" width="428.4" height="26" fill="#1BAF7A"/>
<text x="282.2" y="374" font-size="11" font-weight="700" fill="#fff" text-anchor="middle">14</text>
<rect x="496.4" y="356" width="183.6" height="26" fill="#8B95A5"/>
<text x="588.2" y="374" font-size="11" font-weight="700" fill="#fff" text-anchor="middle">6</text>
<text x="692.9" y="374" font-size="11.5" font-weight="700" fill="#C2410C">Claude: all-clear, 0 of 20</text>
<rect x="68.0" y="404" width="11.8" height="11" rx="2" fill="#C2410C"/>
<text x="85.2" y="414" font-size="11.5" fill="#adbac7">Claude</text>
<rect x="166.8" y="404" width="11.8" height="11" rx="2" fill="#2A78D6"/>
<text x="184.0" y="414" font-size="11.5" fill="#adbac7">Codex</text>
<rect x="258.0" y="404" width="11.8" height="11" rx="2" fill="#1BAF7A"/>
<text x="275.2" y="414" font-size="11.5" fill="#adbac7">Gemini</text>
<rect x="356.8" y="404" width="11.8" height="11" rx="2" fill="#8B95A5"/>
<text x="374.0" y="414" font-size="11.5" fill="#adbac7">Copilot</text>
<text x="68.0" y="432" font-size="10.5" fill="#8b949e">On Runs C, F, and G, Claude posted an explicit all-clear (&#8220;No issues found.&#8221;); the other reviewers subsequently identified 66 valid bugs. On</text>
<text x="68.0" y="446" font-size="10.5" fill="#8b949e">Runs A and B, Claude left review comments rather than an all-clear, but none of those comments identified a valid bug. Each bug is credited</text>
<text x="68.0" y="460" font-size="10.5" fill="#8b949e">to one catching reviewer. Ledger data, repo anonymized.</text>
</svg>
