<svg viewBox="0 0 860 470" xmlns="http://www.w3.org/2000/svg" font-family="-apple-system,Segoe UI,Roboto,Helvetica,Arial,sans-serif">
<rect width="860" height="470" fill="#fff"/>
<text x="30" y="36" font-size="19" font-weight="700" fill="#111">Valid bugs caught by each reviewer, in the six largest qualifying runs</text>
<text x="30" y="57" font-size="12.5" fill="#555">Each bar is one run; segment length is the number of that run&#8217;s bugs each reviewer caught. Ledger data, repo anonymized.</text>
<text x="98" y="110" font-size="12.5" font-weight="700" fill="#333" text-anchor="end">Run A</text>
<rect x="110.0" y="92" width="140.5" height="26" fill="#2A78D6"/>
<text x="180.2" y="110" font-size="11" font-weight="700" fill="#fff" text-anchor="middle">5</text>
<rect x="250.5" y="92" width="252.9" height="26" fill="#1BAF7A"/>
<text x="376.9" y="110" font-size="11" font-weight="700" fill="#fff" text-anchor="middle">9</text>
<rect x="503.3" y="92" width="196.7" height="26" fill="#8B95A5"/>
<text x="601.7" y="110" font-size="11" font-weight="700" fill="#fff" text-anchor="middle">7</text>
<text x="712" y="110" font-size="11.5" font-weight="700" fill="#C2410C">Claude: 0 of 21</text>
<text x="98" y="154" font-size="12.5" font-weight="700" fill="#333" text-anchor="end">Run B</text>
<rect x="110.0" y="136" width="313.8" height="26" fill="#1BAF7A"/>
<text x="266.9" y="154" font-size="11" font-weight="700" fill="#fff" text-anchor="middle">25</text>
<rect x="423.8" y="136" width="276.2" height="26" fill="#8B95A5"/>
<text x="561.9" y="154" font-size="11" font-weight="700" fill="#fff" text-anchor="middle">22</text>
<text x="712" y="154" font-size="11.5" font-weight="700" fill="#C2410C">Claude: 0 of 47</text>
<text x="98" y="198" font-size="12.5" font-weight="700" fill="#333" text-anchor="end">Run C</text>
<rect x="110.0" y="180" width="375.5" height="26" fill="#1BAF7A"/>
<text x="297.7" y="198" font-size="11" font-weight="700" fill="#fff" text-anchor="middle">14</text>
<rect x="485.5" y="180" width="214.5" height="26" fill="#8B95A5"/>
<text x="592.7" y="198" font-size="11" font-weight="700" fill="#fff" text-anchor="middle">8</text>
<text x="712" y="198" font-size="11.5" font-weight="700" fill="#C2410C">Claude: 0 of 22</text>
<text x="98" y="242" font-size="12.5" font-weight="700" fill="#333" text-anchor="end">Run D</text>
<rect x="110.0" y="224" width="28.1" height="26" fill="#C2410C"/>
<text x="124.0" y="242" font-size="11" font-weight="700" fill="#fff" text-anchor="middle">2</text>
<rect x="138.1" y="224" width="351.2" height="26" fill="#1BAF7A"/>
<text x="313.7" y="242" font-size="11" font-weight="700" fill="#fff" text-anchor="middle">25</text>
<rect x="489.3" y="224" width="210.7" height="26" fill="#8B95A5"/>
<text x="594.6" y="242" font-size="11" font-weight="700" fill="#fff" text-anchor="middle">15</text>
<text x="712" y="242" font-size="11.5" font-weight="700" fill="#C2410C">Claude: 2 of 42</text>
<text x="98" y="286" font-size="12.5" font-weight="700" fill="#333" text-anchor="end">Run E</text>
<rect x="110.0" y="268" width="20.3" height="26" fill="#C2410C"/>
<text x="120.2" y="286" font-size="11" font-weight="700" fill="#fff" text-anchor="middle">1</text>
<rect x="130.3" y="268" width="529.0" height="26" fill="#1BAF7A"/>
<text x="394.8" y="286" font-size="11" font-weight="700" fill="#fff" text-anchor="middle">26</text>
<rect x="659.3" y="268" width="40.7" height="26" fill="#8B95A5"/>
<text x="679.7" y="286" font-size="11" font-weight="700" fill="#fff" text-anchor="middle">2</text>
<text x="712" y="286" font-size="11.5" font-weight="700" fill="#C2410C">Claude: 1 of 29</text>
<text x="98" y="330" font-size="12.5" font-weight="700" fill="#333" text-anchor="end">Run F</text>
<rect x="110.0" y="312" width="49.2" height="26" fill="#2A78D6"/>
<text x="134.6" y="330" font-size="11" font-weight="700" fill="#fff" text-anchor="middle">2</text>
<rect x="159.2" y="312" width="491.7" height="26" fill="#1BAF7A"/>
<text x="405.0" y="330" font-size="11" font-weight="700" fill="#fff" text-anchor="middle">20</text>
<rect x="650.8" y="312" width="49.2" height="26" fill="#8B95A5"/>
<text x="675.4" y="330" font-size="11" font-weight="700" fill="#fff" text-anchor="middle">2</text>
<text x="712" y="330" font-size="11.5" font-weight="700" fill="#C2410C">Claude: all-clear, 0 of 24</text>
<rect x="110" y="362" width="11" height="11" rx="2" fill="#C2410C"/>
<text x="126" y="372" font-size="11.5" fill="#444">Claude</text>
<rect x="202" y="362" width="11" height="11" rx="2" fill="#2A78D6"/>
<text x="218" y="372" font-size="11.5" fill="#444">Codex</text>
<rect x="287" y="362" width="11" height="11" rx="2" fill="#1BAF7A"/>
<text x="303" y="372" font-size="11.5" fill="#444">Gemini</text>
<rect x="379" y="362" width="11" height="11" rx="2" fill="#8B95A5"/>
<text x="395" y="372" font-size="11.5" fill="#444">Copilot</text>
<text x="110" y="390" font-size="10.5" fill="#999">Each bug is credited to one catching reviewer. In Run F Claude reviewed and posted an explicit all-clear (&#8220;No issues found.&#8221;); the panel then caught 24 valid bugs.</text>
</svg>