<svg viewBox="0 0 860 560" xmlns="http://www.w3.org/2000/svg" font-family="-apple-system,Segoe UI,Roboto,Helvetica,Arial,sans-serif">
<rect width="860" height="560" fill="#fff"/>
<text x="30" y="36" font-size="19" font-weight="700" fill="#111">Valid bugs caught by each reviewer, per run</text>
<text x="30" y="57" font-size="12.5" fill="#555">Every qualifying run with 20 or more valid bugs (all 7 of them). Segment length: the number of that run&#8217;s bugs each reviewer caught.</text>
<text x="98" y="110" font-size="12.5" font-weight="700" fill="#333" text-anchor="end">Run A</text>
<rect x="110.0" y="92" width="135.7" height="26" fill="#2A78D6"/>
<text x="177.9" y="110" font-size="11" font-weight="700" fill="#fff" text-anchor="middle">5</text>
<rect x="245.7" y="92" width="244.3" height="26" fill="#1BAF7A"/>
<text x="367.9" y="110" font-size="11" font-weight="700" fill="#fff" text-anchor="middle">9</text>
<rect x="490.0" y="92" width="190.0" height="26" fill="#8B95A5"/>
<text x="585.0" y="110" font-size="11" font-weight="700" fill="#fff" text-anchor="middle">7</text>
<text x="692" y="110" font-size="11.5" font-weight="700" fill="#C2410C">Claude: 0 of 21</text>
<text x="98" y="154" font-size="12.5" font-weight="700" fill="#333" text-anchor="end">Run B</text>
<rect x="110.0" y="136" width="303.2" height="26" fill="#1BAF7A"/>
<text x="261.6" y="154" font-size="11" font-weight="700" fill="#fff" text-anchor="middle">25</text>
<rect x="413.2" y="136" width="266.8" height="26" fill="#8B95A5"/>
<text x="546.6" y="154" font-size="11" font-weight="700" fill="#fff" text-anchor="middle">22</text>
<text x="692" y="154" font-size="11.5" font-weight="700" fill="#C2410C">Claude: 0 of 47</text>
<text x="98" y="198" font-size="12.5" font-weight="700" fill="#333" text-anchor="end">Run C</text>
<rect x="110.0" y="180" width="362.7" height="26" fill="#1BAF7A"/>
<text x="291.4" y="198" font-size="11" font-weight="700" fill="#fff" text-anchor="middle">14</text>
<rect x="472.7" y="180" width="207.3" height="26" fill="#8B95A5"/>
<text x="576.4" y="198" font-size="11" font-weight="700" fill="#fff" text-anchor="middle">8</text>
<text x="692" y="198" font-size="11.5" font-weight="700" fill="#C2410C">Claude: all-clear, 0 of 22</text>
<text x="98" y="242" font-size="12.5" font-weight="700" fill="#333" text-anchor="end">Run D</text>
<rect x="110.0" y="224" width="27.1" height="26" fill="#C2410C"/>
<text x="123.6" y="242" font-size="11" font-weight="700" fill="#fff" text-anchor="middle">2</text>
<rect x="137.1" y="224" width="339.3" height="26" fill="#1BAF7A"/>
<text x="306.8" y="242" font-size="11" font-weight="700" fill="#fff" text-anchor="middle">25</text>
<rect x="476.4" y="224" width="203.6" height="26" fill="#8B95A5"/>
<text x="578.2" y="242" font-size="11" font-weight="700" fill="#fff" text-anchor="middle">15</text>
<text x="692" y="242" font-size="11.5" font-weight="700" fill="#C2410C">Claude: 2 of 42</text>
<text x="98" y="286" font-size="12.5" font-weight="700" fill="#333" text-anchor="end">Run E</text>
<rect x="110.0" y="268" width="19.7" height="26" fill="#C2410C"/>
<rect x="129.7" y="268" width="511.0" height="26" fill="#1BAF7A"/>
<text x="385.2" y="286" font-size="11" font-weight="700" fill="#fff" text-anchor="middle">26</text>
<rect x="640.7" y="268" width="39.3" height="26" fill="#8B95A5"/>
<text x="660.3" y="286" font-size="11" font-weight="700" fill="#fff" text-anchor="middle">2</text>
<text x="692" y="286" font-size="11.5" font-weight="700" fill="#C2410C">Claude: 1 of 29</text>
<text x="98" y="330" font-size="12.5" font-weight="700" fill="#333" text-anchor="end">Run F</text>
<rect x="110.0" y="312" width="47.5" height="26" fill="#2A78D6"/>
<text x="133.8" y="330" font-size="11" font-weight="700" fill="#fff" text-anchor="middle">2</text>
<rect x="157.5" y="312" width="475.0" height="26" fill="#1BAF7A"/>
<text x="395.0" y="330" font-size="11" font-weight="700" fill="#fff" text-anchor="middle">20</text>
<rect x="632.5" y="312" width="47.5" height="26" fill="#8B95A5"/>
<text x="656.2" y="330" font-size="11" font-weight="700" fill="#fff" text-anchor="middle">2</text>
<text x="692" y="330" font-size="11.5" font-weight="700" fill="#C2410C">Claude: all-clear, 0 of 24</text>
<text x="98" y="374" font-size="12.5" font-weight="700" fill="#333" text-anchor="end">Run G</text>
<rect x="110.0" y="356" width="399.0" height="26" fill="#1BAF7A"/>
<text x="309.5" y="374" font-size="11" font-weight="700" fill="#fff" text-anchor="middle">14</text>
<rect x="509.0" y="356" width="171.0" height="26" fill="#8B95A5"/>
<text x="594.5" y="374" font-size="11" font-weight="700" fill="#fff" text-anchor="middle">6</text>
<text x="692" y="374" font-size="11.5" font-weight="700" fill="#C2410C">Claude: all-clear, 0 of 20</text>
<rect x="110" y="404" width="11" height="11" rx="2" fill="#C2410C"/>
<text x="126" y="414" font-size="11.5" fill="#444">Claude</text>
<rect x="202" y="404" width="11" height="11" rx="2" fill="#2A78D6"/>
<text x="218" y="414" font-size="11.5" fill="#444">Codex</text>
<rect x="287" y="404" width="11" height="11" rx="2" fill="#1BAF7A"/>
<text x="303" y="414" font-size="11.5" fill="#444">Gemini</text>
<rect x="379" y="404" width="11" height="11" rx="2" fill="#8B95A5"/>
<text x="395" y="414" font-size="11.5" fill="#444">Copilot</text>
<text x="110" y="432" font-size="10.5" fill="#999">On runs C, F, and G, Claude posted an explicit all-clear (&#8220;No issues found.&#8221;). On runs A and B it commented, but no comment</text>
<text x="110" y="446" font-size="10.5" fill="#999">produced a valid bug. Each bug is credited to one catching reviewer. Ledger data, repo anonymized.</text>
</svg>