<svg viewBox="0 0 430 491" xmlns="http://www.w3.org/2000/svg" font-family="-apple-system,Segoe UI,Roboto,Helvetica,Arial,sans-serif">
<text x="16.0" y="20.0" font-size="16" font-weight="700" fill="#e6edf3">Share of bugs caught in round 2+, per</text>
<text x="16.0" y="41.0" font-size="16" font-weight="700" fill="#e6edf3">review run</text>
<text x="16.0" y="60.0" font-size="12" fill="#adbac7">Each bar is one qualifying run with 10 or more valid bugs (all 20</text>
<text x="16.0" y="76.0" font-size="12" fill="#adbac7">of them). Bar height: the share of that run’s bugs found after</text>
<text x="16.0" y="92.0" font-size="12" fill="#adbac7">round 1. The bold line is the aggregate over all 88 qualifying runs</text>
<text x="16.0" y="108.0" font-size="12" fill="#adbac7">(681 bugs). Ledger data, repo anonymized.</text>
<line x1="46" y1="293.0" x2="414" y2="293.0" stroke="#2a3038" stroke-width="1"/>
<text x="40.0" y="297.0" font-size="12" text-anchor="end" fill="#8b949e">0%</text>
<line x1="46" y1="251.0" x2="414" y2="251.0" stroke="#2a3038" stroke-width="1"/>
<text x="40.0" y="255.0" font-size="12" text-anchor="end" fill="#8b949e">25%</text>
<line x1="46" y1="209.0" x2="414" y2="209.0" stroke="#2a3038" stroke-width="1"/>
<text x="40.0" y="213.0" font-size="12" text-anchor="end" fill="#8b949e">50%</text>
<line x1="46" y1="167.0" x2="414" y2="167.0" stroke="#2a3038" stroke-width="1"/>
<text x="40.0" y="171.0" font-size="12" text-anchor="end" fill="#8b949e">75%</text>
<line x1="46" y1="125.0" x2="414" y2="125.0" stroke="#2a3038" stroke-width="1"/>
<text x="40.0" y="129.0" font-size="12" text-anchor="end" fill="#8b949e">100%</text>
<rect x="46.0" y="201.3" width="14.4" height="91.7" fill="#E5484D" opacity="0.85"/>
<rect x="64.6" y="157.0" width="14.4" height="136.0" fill="#E5484D" opacity="0.85"/>
<rect x="83.2" y="209.0" width="14.4" height="84.0" fill="#E5484D" opacity="0.85"/>
<rect x="101.8" y="209.0" width="14.4" height="84.0" fill="#E5484D" opacity="0.85"/>
<rect x="120.4" y="176.7" width="14.4" height="116.3" fill="#E5484D" opacity="0.85"/>
<rect x="139.0" y="209.0" width="14.4" height="84.0" fill="#E5484D" opacity="0.85"/>
<rect x="157.7" y="146.4" width="14.4" height="146.6" fill="#E5484D" opacity="0.85"/>
<rect x="176.3" y="171.6" width="14.4" height="121.4" fill="#E5484D" opacity="0.85"/>
<rect x="194.9" y="178.5" width="14.4" height="114.5" fill="#E5484D" opacity="0.85"/>
<rect x="213.5" y="157.0" width="14.4" height="136.0" fill="#E5484D" opacity="0.85"/>
<rect x="232.1" y="171.6" width="14.4" height="121.4" fill="#E5484D" opacity="0.85"/>
<rect x="250.7" y="192.2" width="14.4" height="100.8" fill="#E5484D" opacity="0.85"/>
<rect x="269.3" y="165.6" width="14.4" height="127.4" fill="#E5484D" opacity="0.85"/>
<rect x="288.0" y="209.0" width="14.4" height="84.0" fill="#E5484D" opacity="0.85"/>
<rect x="306.5" y="237.0" width="14.4" height="56.0" fill="#E5484D" opacity="0.85"/>
<rect x="325.1" y="242.6" width="14.4" height="50.4" fill="#E5484D" opacity="0.85"/>
<rect x="343.8" y="215.5" width="14.4" height="77.5" fill="#E5484D" opacity="0.85"/>
<rect x="362.4" y="160.0" width="14.4" height="133.0" fill="#E5484D" opacity="0.85"/>
<rect x="381.0" y="209.0" width="14.4" height="84.0" fill="#E5484D" opacity="0.85"/>
<rect x="399.6" y="259.4" width="14.4" height="33.6" fill="#E5484D" opacity="0.85"/>
<line x1="46" y1="208.9" x2="414" y2="208.9" stroke="#e6edf3" stroke-width="2.2"/>
<text x="414.0" y="203.9" font-size="12" font-weight="700" text-anchor="end" fill="#e6edf3">50.1% in round 2+</text>
<text x="16.0" y="326.0" font-size="12" fill="#8b949e">Runs with more bugs tend to earn more review rounds, so most</text>
<text x="16.0" y="342.0" font-size="12" fill="#8b949e">of these bars sit above the all-runs line.</text>
<text x="16.0" y="359.0" font-size="13" font-weight="700" fill="#ff7b72">Across all 88 qualifying runs, 50.1% of valid bugs, and</text>
<text x="16.0" y="376.0" font-size="13" font-weight="700" fill="#ff7b72">49.2% of the 189 high or critical ones, were caught</text>
<text x="16.0" y="393.0" font-size="13" font-weight="700" fill="#ff7b72">only in</text>
<text x="16.0" y="410.0" font-size="13" font-weight="700" fill="#ff7b72">round 2+.</text>
<text x="16.0" y="426.0" font-size="12" fill="#8b949e">On the 20 runs shown as bars, the round 2+ share is 65.4%. A</text>
<text x="16.0" y="442.0" font-size="12" fill="#8b949e">reviewer that stops after one round would have shipped every bug</text>
<text x="16.0" y="458.0" font-size="12" fill="#8b949e">counted in</text>
<text x="16.0" y="474.0" font-size="12" fill="#8b949e">these bars.</text>
</svg>
