<svg viewBox="0 0 430 426" xmlns="http://www.w3.org/2000/svg" font-family="-apple-system,Segoe UI,Roboto,Helvetica,Arial,sans-serif">
<text x="16.0" y="20.0" font-size="16" font-weight="700" fill="#1f2328">Share of bugs caught in round 2+, per review run</text>
<text x="16.0" y="39.0" font-size="12" fill="#57606a">Each bar is one qualifying run with 10 or more valid bugs (all 20 of</text>
<text x="16.0" y="55.0" font-size="12" fill="#57606a">them). Bar height: the share of that run’s bugs found after round 1. The</text>
<text x="16.0" y="71.0" font-size="12" fill="#57606a">bold line is the aggregate over all 88 qualifying runs (681 bugs).</text>
<text x="16.0" y="87.0" font-size="12" fill="#57606a">Ledger data, repo anonymized.</text>
<line x1="46" y1="272.0" x2="414" y2="272.0" stroke="#e6e8eb" stroke-width="1"/>
<text x="40.0" y="276.0" font-size="12" text-anchor="end" fill="#8b949e">0%</text>
<line x1="46" y1="230.0" x2="414" y2="230.0" stroke="#e6e8eb" stroke-width="1"/>
<text x="40.0" y="234.0" font-size="12" text-anchor="end" fill="#8b949e">25%</text>
<line x1="46" y1="188.0" x2="414" y2="188.0" stroke="#e6e8eb" stroke-width="1"/>
<text x="40.0" y="192.0" font-size="12" text-anchor="end" fill="#8b949e">50%</text>
<line x1="46" y1="146.0" x2="414" y2="146.0" stroke="#e6e8eb" stroke-width="1"/>
<text x="40.0" y="150.0" font-size="12" text-anchor="end" fill="#8b949e">75%</text>
<line x1="46" y1="104.0" x2="414" y2="104.0" stroke="#e6e8eb" stroke-width="1"/>
<text x="40.0" y="108.0" font-size="12" text-anchor="end" fill="#8b949e">100%</text>
<rect x="46.0" y="180.3" width="14.4" height="91.7" fill="#E5484D" opacity="0.85"/>
<rect x="64.6" y="136.0" width="14.4" height="136.0" fill="#E5484D" opacity="0.85"/>
<rect x="83.2" y="188.0" width="14.4" height="84.0" fill="#E5484D" opacity="0.85"/>
<rect x="101.8" y="188.0" width="14.4" height="84.0" fill="#E5484D" opacity="0.85"/>
<rect x="120.4" y="155.7" width="14.4" height="116.3" fill="#E5484D" opacity="0.85"/>
<rect x="139.0" y="188.0" width="14.4" height="84.0" fill="#E5484D" opacity="0.85"/>
<rect x="157.7" y="125.4" width="14.4" height="146.6" fill="#E5484D" opacity="0.85"/>
<rect x="176.3" y="150.6" width="14.4" height="121.4" fill="#E5484D" opacity="0.85"/>
<rect x="194.9" y="157.5" width="14.4" height="114.5" fill="#E5484D" opacity="0.85"/>
<rect x="213.5" y="136.0" width="14.4" height="136.0" fill="#E5484D" opacity="0.85"/>
<rect x="232.1" y="150.6" width="14.4" height="121.4" fill="#E5484D" opacity="0.85"/>
<rect x="250.7" y="171.2" width="14.4" height="100.8" fill="#E5484D" opacity="0.85"/>
<rect x="269.3" y="144.6" width="14.4" height="127.4" fill="#E5484D" opacity="0.85"/>
<rect x="288.0" y="188.0" width="14.4" height="84.0" fill="#E5484D" opacity="0.85"/>
<rect x="306.5" y="216.0" width="14.4" height="56.0" fill="#E5484D" opacity="0.85"/>
<rect x="325.1" y="221.6" width="14.4" height="50.4" fill="#E5484D" opacity="0.85"/>
<rect x="343.8" y="194.5" width="14.4" height="77.5" fill="#E5484D" opacity="0.85"/>
<rect x="362.4" y="139.0" width="14.4" height="133.0" fill="#E5484D" opacity="0.85"/>
<rect x="381.0" y="188.0" width="14.4" height="84.0" fill="#E5484D" opacity="0.85"/>
<rect x="399.6" y="238.4" width="14.4" height="33.6" fill="#E5484D" opacity="0.85"/>
<line x1="46" y1="187.9" x2="414" y2="187.9" stroke="#1f2328" stroke-width="2.2"/>
<text x="414.0" y="182.9" font-size="12" font-weight="700" text-anchor="end" fill="#1f2328">50.1% in round 2+</text>
<text x="16.0" y="305.0" font-size="12" fill="#8b949e">Runs with more bugs tend to earn more review rounds, so most of</text>
<text x="16.0" y="321.0" font-size="12" fill="#8b949e">these bars sit above the all-runs line.</text>
<text x="16.0" y="340.0" font-size="13" font-weight="700" fill="#B01722">Across all 88 qualifying runs, 50.1% of valid bugs, and 49.2%</text>
<text x="16.0" y="357.0" font-size="13" font-weight="700" fill="#B01722">of the 189 high or critical ones, were caught only in round 2+.</text>
<text x="16.0" y="375.0" font-size="12" fill="#8b949e">On the 20 runs shown as bars, the round 2+ share is 65.4%. A</text>
<text x="16.0" y="391.0" font-size="12" fill="#8b949e">reviewer that stops after one round would have shipped every bug</text>
<text x="16.0" y="407.0" font-size="12" fill="#8b949e">counted in these bars.</text>
</svg>
