<svg viewBox="0 0 860 560" xmlns="http://www.w3.org/2000/svg" font-family="-apple-system,Segoe UI,Roboto,Helvetica,Arial,sans-serif">
<rect width="860" height="560" fill="#fff"/>
<text x="30" y="36" font-size="19" font-weight="700" fill="#111">When do the bugs surface? Mostly after round 1.</text>
<text x="30" y="57" font-size="12.5" fill="#555">Same six runs. Bugs caught in round 2+ exist because fixes were re-reviewed &#8212; a review-once-then-close flow ends at the dashed line.</text>
<text x="98" y="110" font-size="12.5" font-weight="700" fill="#333" text-anchor="end">Run A</text>
<rect x="110" y="92" width="112.4" height="26" fill="#CBD5E1"/><rect x="222.4" y="92" width="477.6" height="26" fill="#E5484D"/>
<text x="166.2" y="110" font-size="11" font-weight="700" fill="#334" text-anchor="middle">8</text>
<text x="461.2" y="110" font-size="11" font-weight="700" fill="#fff" text-anchor="middle">34</text>
<line x1="222.4" y1="89" x2="222.4" y2="121" stroke="#334155" stroke-width="1.5" stroke-dasharray="3 2"/>
<text x="712" y="104" font-size="11.5" font-weight="700" fill="#B01722">81% in R2+</text>
<text x="712" y="118" font-size="10.5" fill="#777">high/crit: 14 of 19 in R2+</text>
<text x="98" y="154" font-size="12.5" font-weight="700" fill="#333" text-anchor="end">Run B</text>
<rect x="110" y="136" width="136.2" height="26" fill="#CBD5E1"/><rect x="246.2" y="136" width="453.8" height="26" fill="#E5484D"/>
<text x="178.1" y="154" font-size="11" font-weight="700" fill="#334" text-anchor="middle">6</text>
<text x="473.1" y="154" font-size="11" font-weight="700" fill="#fff" text-anchor="middle">20</text>
<line x1="246.2" y1="133" x2="246.2" y2="165" stroke="#334155" stroke-width="1.5" stroke-dasharray="3 2"/>
<text x="712" y="148" font-size="11.5" font-weight="700" fill="#B01722">77% in R2+</text>
<text x="712" y="162" font-size="10.5" fill="#777">high/crit: 12 of 16 in R2+</text>
<text x="98" y="198" font-size="12.5" font-weight="700" fill="#333" text-anchor="end">Run C</text>
<rect x="110" y="180" width="142.4" height="26" fill="#CBD5E1"/><rect x="252.4" y="180" width="447.6" height="26" fill="#E5484D"/>
<text x="181.2" y="198" font-size="11" font-weight="700" fill="#334" text-anchor="middle">7</text>
<text x="476.2" y="198" font-size="11" font-weight="700" fill="#fff" text-anchor="middle">22</text>
<line x1="252.4" y1="177" x2="252.4" y2="209" stroke="#334155" stroke-width="1.5" stroke-dasharray="3 2"/>
<text x="712" y="192" font-size="11.5" font-weight="700" fill="#B01722">76% in R2+</text>
<text x="712" y="206" font-size="10.5" fill="#777">high/crit: 8 of 8 in R2+</text>
<text x="98" y="242" font-size="12.5" font-weight="700" fill="#333" text-anchor="end">Run D</text>
<rect x="110" y="224" width="122.9" height="26" fill="#CBD5E1"/><rect x="232.9" y="224" width="467.1" height="26" fill="#E5484D"/>
<text x="171.5" y="242" font-size="11" font-weight="700" fill="#334" text-anchor="middle">5</text>
<text x="466.5" y="242" font-size="11" font-weight="700" fill="#fff" text-anchor="middle">19</text>
<line x1="232.9" y1="221" x2="232.9" y2="253" stroke="#334155" stroke-width="1.5" stroke-dasharray="3 2"/>
<text x="712" y="236" font-size="11.5" font-weight="700" fill="#B01722">79% in R2+</text>
<text x="712" y="250" font-size="10.5" fill="#777">high/crit: 5 of 6 in R2+</text>
<text x="98" y="286" font-size="12.5" font-weight="700" fill="#333" text-anchor="end">Run E</text>
<rect x="110" y="268" width="295.0" height="26" fill="#CBD5E1"/><rect x="405.0" y="268" width="295.0" height="26" fill="#E5484D"/>
<text x="257.5" y="286" font-size="11" font-weight="700" fill="#334" text-anchor="middle">6</text>
<text x="552.5" y="286" font-size="11" font-weight="700" fill="#fff" text-anchor="middle">6</text>
<line x1="405.0" y1="265" x2="405.0" y2="297" stroke="#334155" stroke-width="1.5" stroke-dasharray="3 2"/>
<text x="712" y="280" font-size="11.5" font-weight="700" fill="#B01722">50% in R2+</text>
<text x="712" y="294" font-size="10.5" fill="#777">high/crit: 5 of 8 in R2+</text>
<text x="98" y="330" font-size="12.5" font-weight="700" fill="#333" text-anchor="end">Run F</text>
<rect x="110" y="312" width="118.0" height="26" fill="#CBD5E1"/><rect x="228.0" y="312" width="472.0" height="26" fill="#E5484D"/>
<text x="169.0" y="330" font-size="11" font-weight="700" fill="#334" text-anchor="middle">9</text>
<text x="464.0" y="330" font-size="11" font-weight="700" fill="#fff" text-anchor="middle">36</text>
<line x1="228.0" y1="309" x2="228.0" y2="341" stroke="#334155" stroke-width="1.5" stroke-dasharray="3 2"/>
<text x="712" y="324" font-size="11.5" font-weight="700" fill="#B01722">80% in R2+</text>
<text x="712" y="338" font-size="10.5" fill="#777">high/crit: 13 of 18 in R2+</text>
<line x1="110" y1="350" x2="700" y2="350" stroke="#ddd" stroke-width="1"/>
<text x="98" y="380" font-size="12.5" font-weight="700" fill="#111" text-anchor="end">All runs</text>
<rect x="110" y="362" width="135.9" height="26" fill="#CBD5E1"/><rect x="245.9" y="362" width="454.1" height="26" fill="#E5484D"/>
<text x="177.9" y="380" font-size="11" font-weight="700" fill="#334" text-anchor="middle">41</text>
<text x="472.9" y="380" font-size="11" font-weight="700" fill="#fff" text-anchor="middle">137</text>
<line x1="245.9" y1="359" x2="245.9" y2="391" stroke="#334155" stroke-width="1.5" stroke-dasharray="3 2"/>
<text x="712" y="380" font-size="11.5" font-weight="700" fill="#B01722">77% in R2+</text>
<text x="110" y="408" font-size="13" font-weight="700" fill="#B01722">77% of all valid bugs &#8212; and 76% of high/critical ones &#8212; surfaced only in round 2 or later.</text>
<rect x="110" y="430" width="11" height="11" rx="2" fill="#CBD5E1"/><text x="126" y="440" font-size="11.5" fill="#444">caught in round 1</text>
<rect x="270" y="430" width="11" height="11" rx="2" fill="#E5484D"/><text x="286" y="440" font-size="11.5" fill="#444">caught in round 2+ (after fixes were re-reviewed)</text>
</svg>