<svg viewBox="0 0 430 474" xmlns="http://www.w3.org/2000/svg" font-family="-apple-system,Segoe UI,Roboto,Helvetica,Arial,sans-serif">
<text x="16.0" y="20.0" font-size="16" font-weight="700" fill="#1f2328">Claude’s share of the valid bugs, per review</text>
<text x="16.0" y="41.0" font-size="16" font-weight="700" fill="#1f2328">run</text>
<text x="16.0" y="60.0" font-size="12" fill="#57606a">Each bar is one qualifying run with 10 or more valid bugs (all 20</text>
<text x="16.0" y="76.0" font-size="12" fill="#57606a">of them). Bar height: the share of that run’s bugs that Claude</text>
<text x="16.0" y="92.0" font-size="12" fill="#57606a">caught. The bold line is the aggregate over all 88 qualifying runs</text>
<text x="16.0" y="108.0" font-size="12" fill="#57606a">(681 bugs). Ledger data, repo anonymized.</text>
<line x1="46" y1="293.0" x2="414" y2="293.0" stroke="#e6e8eb" stroke-width="1"/>
<text x="40.0" y="297.0" font-size="12" text-anchor="end" fill="#8b949e">0%</text>
<line x1="46" y1="251.0" x2="414" y2="251.0" stroke="#e6e8eb" stroke-width="1"/>
<text x="40.0" y="255.0" font-size="12" text-anchor="end" fill="#8b949e">10%</text>
<line x1="46" y1="209.0" x2="414" y2="209.0" stroke="#e6e8eb" stroke-width="1"/>
<text x="40.0" y="213.0" font-size="12" text-anchor="end" fill="#8b949e">20%</text>
<line x1="46" y1="167.0" x2="414" y2="167.0" stroke="#e6e8eb" stroke-width="1"/>
<text x="40.0" y="171.0" font-size="12" text-anchor="end" fill="#8b949e">30%</text>
<line x1="46" y1="125.0" x2="414" y2="125.0" stroke="#e6e8eb" stroke-width="1"/>
<text x="40.0" y="129.0" font-size="12" text-anchor="end" fill="#8b949e">40%</text>
<rect x="46.0" y="140.3" width="14.4" height="152.7" fill="#C2410C" opacity="0.9"/>
<rect x="64.6" y="291.5" width="14.4" height="2.0" fill="#C2410C" opacity="0.35"/>
<rect x="83.2" y="209.0" width="14.4" height="84.0" fill="#C2410C" opacity="0.9"/>
<rect x="101.8" y="266.8" width="14.4" height="26.2" fill="#C2410C" opacity="0.9"/>
<rect x="120.4" y="291.5" width="14.4" height="2.0" fill="#C2410C" opacity="0.35"/>
<rect x="139.0" y="291.5" width="14.4" height="2.0" fill="#C2410C" opacity="0.35"/>
<rect x="157.7" y="291.5" width="14.4" height="2.0" fill="#C2410C" opacity="0.35"/>
<rect x="176.3" y="291.5" width="14.4" height="2.0" fill="#C2410C" opacity="0.35"/>
<rect x="194.9" y="291.5" width="14.4" height="2.0" fill="#C2410C" opacity="0.35"/>
<rect x="213.5" y="273.0" width="14.4" height="20.0" fill="#C2410C" opacity="0.9"/>
<rect x="232.1" y="291.5" width="14.4" height="2.0" fill="#C2410C" opacity="0.35"/>
<rect x="250.7" y="291.5" width="14.4" height="2.0" fill="#C2410C" opacity="0.35"/>
<rect x="269.3" y="278.5" width="14.4" height="14.5" fill="#C2410C" opacity="0.9"/>
<rect x="288.0" y="291.5" width="14.4" height="2.0" fill="#C2410C" opacity="0.35"/>
<rect x="306.5" y="291.5" width="14.4" height="2.0" fill="#C2410C" opacity="0.35"/>
<rect x="325.1" y="291.5" width="14.4" height="2.0" fill="#C2410C" opacity="0.35"/>
<rect x="343.8" y="291.5" width="14.4" height="2.0" fill="#C2410C" opacity="0.35"/>
<rect x="362.4" y="291.5" width="14.4" height="2.0" fill="#C2410C" opacity="0.35"/>
<rect x="381.0" y="258.0" width="14.4" height="35.0" fill="#C2410C" opacity="0.9"/>
<rect x="399.6" y="291.5" width="14.4" height="2.0" fill="#C2410C" opacity="0.35"/>
<line x1="46" y1="277.0" x2="414" y2="277.0" stroke="#1f2328" stroke-width="2.2"/>
<text x="414.0" y="272.0" font-size="12" font-weight="700" text-anchor="end" fill="#1f2328">Claude = 3.8%</text>
<text x="16.0" y="326.0" font-size="12" fill="#8b949e">Flat stubs are zero. In 14 of these 20 runs Claude reviewed the</text>
<text x="16.0" y="342.0" font-size="12" fill="#8b949e">code and caught nothing.</text>
<text x="16.0" y="359.0" font-size="13" font-weight="700" fill="#B01722">Across all 88 qualifying runs, Claude caught 3.8% of</text>
<text x="16.0" y="376.0" font-size="13" font-weight="700" fill="#B01722">the valid bugs. Reviewers from other vendors caught</text>
<text x="16.0" y="393.0" font-size="13" font-weight="700" fill="#B01722">96.2%.</text>
<text x="16.0" y="409.0" font-size="12" fill="#8b949e">Claude caught 18 of the 189 high or critical bugs (9.5%). Of the</text>
<text x="16.0" y="425.0" font-size="12" fill="#8b949e">high or critical bugs found in round 2 or later, 93.5% came from a</text>
<text x="16.0" y="441.0" font-size="12" fill="#8b949e">non-Claude</text>
<text x="16.0" y="457.0" font-size="12" fill="#8b949e">reviewer.</text>
</svg>
