<svg viewBox="0 0 860 560" xmlns="http://www.w3.org/2000/svg" font-family="-apple-system,Segoe UI,Roboto,Helvetica,Arial,sans-serif">
<rect width="860" height="560" fill="#fff"/>
<text x="30" y="36" font-size="19" font-weight="700" fill="#111">Who catches the bugs in Claude-written code?</text>
<text x="30" y="57" font-size="12.5" fill="#555">Six real Buddhi runs on changes authored with Claude Code. Attribution and severity from the loop&#8217;s per-bug ledger (repo anonymized).</text>
<text x="98" y="110" font-size="12.5" font-weight="700" fill="#333" text-anchor="end">Run A</text>
<rect x="110.0" y="92" width="28.1" height="26" fill="#C2410C"/>
<text x="124.0" y="110" font-size="11" font-weight="700" fill="#fff" text-anchor="middle">2</text>
<rect x="138.1" y="92" width="351.2" height="26" fill="#1BAF7A"/>
<text x="313.7" y="110" font-size="11" font-weight="700" fill="#fff" text-anchor="middle">25</text>
<rect x="489.3" y="92" width="210.7" height="26" fill="#8B95A5"/>
<text x="594.6" y="110" font-size="11" font-weight="700" fill="#fff" text-anchor="middle">15</text>
<text x="712" y="110" font-size="11.5" font-weight="700" fill="#C2410C">Claude: 2 of 42</text>
<text x="98" y="154" font-size="12.5" font-weight="700" fill="#333" text-anchor="end">Run B</text>
<rect x="110.0" y="136" width="158.8" height="26" fill="#C2410C"/>
<text x="189.4" y="154" font-size="11" font-weight="700" fill="#fff" text-anchor="middle">7</text>
<rect x="268.8" y="136" width="249.6" height="26" fill="#1BAF7A"/>
<text x="393.7" y="154" font-size="11" font-weight="700" fill="#fff" text-anchor="middle">11</text>
<rect x="518.5" y="136" width="181.5" height="26" fill="#8B95A5"/>
<text x="609.2" y="154" font-size="11" font-weight="700" fill="#fff" text-anchor="middle">8</text>
<text x="712" y="154" font-size="11.5" font-weight="700" fill="#C2410C">Claude: 7 of 26</text>
<text x="98" y="198" font-size="12.5" font-weight="700" fill="#333" text-anchor="end">Run C</text>
<rect x="110.0" y="180" width="20.3" height="26" fill="#C2410C"/>
<text x="120.2" y="198" font-size="11" font-weight="700" fill="#fff" text-anchor="middle">1</text>
<rect x="130.3" y="180" width="529.0" height="26" fill="#1BAF7A"/>
<text x="394.8" y="198" font-size="11" font-weight="700" fill="#fff" text-anchor="middle">26</text>
<rect x="659.3" y="180" width="40.7" height="26" fill="#8B95A5"/>
<text x="679.7" y="198" font-size="11" font-weight="700" fill="#fff" text-anchor="middle">2</text>
<text x="712" y="198" font-size="11.5" font-weight="700" fill="#C2410C">Claude: 1 of 29</text>
<text x="98" y="242" font-size="12.5" font-weight="700" fill="#333" text-anchor="end">Run D</text>
<rect x="110.0" y="224" width="49.2" height="26" fill="#2A78D6"/>
<text x="134.6" y="242" font-size="11" font-weight="700" fill="#fff" text-anchor="middle">2</text>
<rect x="159.2" y="224" width="491.7" height="26" fill="#1BAF7A"/>
<text x="405.0" y="242" font-size="11" font-weight="700" fill="#fff" text-anchor="middle">20</text>
<rect x="650.8" y="224" width="49.2" height="26" fill="#8B95A5"/>
<text x="675.4" y="242" font-size="11" font-weight="700" fill="#fff" text-anchor="middle">2</text>
<text x="712" y="242" font-size="11.5" font-weight="700" fill="#C2410C">Claude: 0 of 24</text>
<text x="98" y="286" font-size="12.5" font-weight="700" fill="#333" text-anchor="end">Run E</text>
<rect x="110.0" y="268" width="49.2" height="26" fill="#C2410C"/>
<text x="134.6" y="286" font-size="11" font-weight="700" fill="#fff" text-anchor="middle">1</text>
<rect x="159.2" y="268" width="393.3" height="26" fill="#2A78D6"/>
<text x="355.8" y="286" font-size="11" font-weight="700" fill="#fff" text-anchor="middle">8</text>
<rect x="552.5" y="268" width="147.5" height="26" fill="#8B95A5"/>
<text x="626.2" y="286" font-size="11" font-weight="700" fill="#fff" text-anchor="middle">3</text>
<text x="712" y="286" font-size="11.5" font-weight="700" fill="#C2410C">Claude: 1 of 12</text>
<text x="98" y="330" font-size="12.5" font-weight="700" fill="#333" text-anchor="end">Run F</text>
<rect x="110.0" y="312" width="26.2" height="26" fill="#C2410C"/>
<text x="123.1" y="330" font-size="11" font-weight="700" fill="#fff" text-anchor="middle">2</text>
<rect x="136.2" y="312" width="157.3" height="26" fill="#2A78D6"/>
<text x="214.9" y="330" font-size="11" font-weight="700" fill="#fff" text-anchor="middle">12</text>
<rect x="293.6" y="312" width="209.8" height="26" fill="#1BAF7A"/>
<text x="398.4" y="330" font-size="11" font-weight="700" fill="#fff" text-anchor="middle">16</text>
<rect x="503.3" y="312" width="196.7" height="26" fill="#8B95A5"/>
<text x="601.7" y="330" font-size="11" font-weight="700" fill="#fff" text-anchor="middle">15</text>
<text x="712" y="330" font-size="11.5" font-weight="700" fill="#C2410C">Claude: 2 of 45</text>
<line x1="110" y1="350" x2="700" y2="350" stroke="#ddd" stroke-width="1"/>
<text x="98" y="380" font-size="12.5" font-weight="700" fill="#111" text-anchor="end">All runs</text>
<rect x="110.0" y="362" width="43.1" height="26" fill="#C2410C"/>
<text x="131.5" y="380" font-size="11" font-weight="700" fill="#fff" text-anchor="middle">13</text>
<rect x="153.1" y="362" width="72.9" height="26" fill="#2A78D6"/>
<text x="189.6" y="380" font-size="11" font-weight="700" fill="#fff" text-anchor="middle">22</text>
<rect x="226.0" y="362" width="324.8" height="26" fill="#1BAF7A"/>
<text x="388.4" y="380" font-size="11" font-weight="700" fill="#fff" text-anchor="middle">98</text>
<rect x="550.8" y="362" width="149.2" height="26" fill="#8B95A5"/>
<text x="625.4" y="380" font-size="11" font-weight="700" fill="#fff" text-anchor="middle">45</text>
<text x="712" y="380" font-size="11.5" font-weight="700" fill="#C2410C">13 of 178 (7.3%)</text>
<text x="110" y="408" font-size="13" font-weight="700" fill="#C2410C">Across six runs, 92.7% of the valid bugs were caught by reviewers other than Claude.</text>
<rect x="110" y="432" width="11" height="11" rx="2" fill="#C2410C"/>
<text x="126" y="442" font-size="11.5" fill="#444">Claude</text>
<rect x="202" y="432" width="11" height="11" rx="2" fill="#2A78D6"/>
<text x="218" y="442" font-size="11.5" fill="#444">Codex</text>
<rect x="287" y="432" width="11" height="11" rx="2" fill="#1BAF7A"/>
<text x="303" y="442" font-size="11.5" fill="#444">Gemini</text>
<rect x="379" y="432" width="11" height="11" rx="2" fill="#8B95A5"/>
<text x="395" y="442" font-size="11.5" fill="#444">Copilot</text>
<text x="110" y="460" font-size="10.5" fill="#999">&#8220;Valid bugs&#8221; = findings the loop verified and fixed, each credited to one catching reviewer. Fleets vary per run; a run where Claude was disabled is excluded.</text>
</svg>